<svg xmlns="http://www.w3.org/2000/svg" width="3000" height="300"><path d="M94,-236L419,-247L710,-270Z" fill="#eae8e8" stroke="#eae8e8" stroke-width="1.51"/><path d="M-254,-234L94,-236L710,-270Z" fill="#f3f1f1" stroke="#f3f1f1" stroke-width="1.51"/><path d="M428,563L63,578L763,566Z" fill="#737171" stroke="#737171" stroke-width="1.51"/><path d="M710,-270L869,-273L1006,-276Z" fill="#d3d2d2" stroke="#d3d2d2" stroke-width="1.51"/><path d="M763,566L63,578L1180,570Z" fill="#666666" stroke="#666666" stroke-width="1.51"/><path d="M1180,570L63,578L1379,574Z" fill="#5d5d5d" stroke="#5d5d5d" stroke-width="1.51"/><path d="M1704,541L1379,574L1989,559Z" fill="#454444" stroke="#454444" stroke-width="1.51"/><path d="M1098,-271L1478,-238L2072,-268Z" fill="#b7b6b6" stroke="#b7b6b6" stroke-width="1.51"/><path d="M1098,-271L2072,-268L2189,-281Z" fill="#afaeae" stroke="#afaeae" stroke-width="1.51"/><path d="M1006,-276L1098,-271L2189,-281Z" fill="#bcbbbb" stroke="#bcbbbb" stroke-width="1.51"/><path d="M1989,559L1379,574L2442,569Z" fill="#3d3d3d" stroke="#3d3d3d" stroke-width="1.51"/><path d="M2155,554L1989,559L2442,569Z" fill="#363636" stroke="#363636" stroke-width="1.51"/><path d="M2189,-281L2574,-276L2813,-282Z" fill="#939191" stroke="#939191" stroke-width="1.51"/><path d="M2949,494L2725,512L3080,503Z" fill="#262525" stroke="#262525" stroke-width="1.51"/><path d="M3080,503L2725,512L3234,529Z" fill="#232222" stroke="#232222" stroke-width="1.51"/><path d="M2725,512L2442,569L3234,529Z" fill="#262525" stroke="#262525" stroke-width="1.51"/><path d="M3127,364L3080,503L3234,529Z" fill="#222222" stroke="#222222" stroke-width="1.51"/><path d="M2189,-281L2813,-282L3237,-286Z" fill="#8a8888" stroke="#8a8888" stroke-width="1.51"/><path d="M2813,-282L3067,-191L3237,-286Z" fill="#828080" stroke="#828080" stroke-width="1.51"/><path d="M3067,-191L3184,-59L3237,-286Z" fill="#7b7a7a" stroke="#7b7a7a" stroke-width="1.51"/><path d="M3127,364L3234,529L3243,366Z" fill="#262525" stroke="#262525" stroke-width="1.51"/><path d="M3127,364L3243,366L3249,179Z" fill="#363636" stroke="#363636" stroke-width="1.51"/><path d="M3057,252L3127,364L3249,179Z" fill="#3d3d3d" stroke="#3d3d3d" stroke-width="1.51"/><path d="M3243,366L3234,529L3265,35Z" fill="#333333" stroke="#333333" stroke-width="1.51"/><path d="M3061,57L3249,179L3265,35Z" fill="#504f4f" stroke="#504f4f" stroke-width="1.51"/><path d="M3184,-59L3061,57L3265,35Z" fill="#5c5b5b" stroke="#5c5b5b" stroke-width="1.51"/><path d="M3249,179L3243,366L3265,35Z" fill="#403f3f" stroke="#403f3f" stroke-width="1.51"/><path d="M3237,-286L3184,-59L3265,35Z" fill="#6d6c6c" stroke="#6d6c6c" stroke-width="1.51"/><path d="M2189,-281L2437,-258L2574,-276Z" fill="#989797" stroke="#989797" stroke-width="1.51"/><path d="M3061,57L3057,252L3249,179Z" fill="#494848" stroke="#494848" stroke-width="1.51"/><path d="M3067,-191L3034,-93L3184,-59Z" fill="#757474" stroke="#757474" stroke-width="1.51"/><path d="M3034,-93L3061,57L3184,-59Z" fill="#666666" stroke="#666666" stroke-width="1.51"/><path d="M2945,86L3057,252L3061,57Z" fill="#525151" stroke="#525151" stroke-width="1.51"/><path d="M2813,-282L2885,-197L3067,-191Z" fill="#858383" stroke="#858383" stroke-width="1.51"/><path d="M3057,252L2905,359L3127,364Z" fill="#3b3a3a" stroke="#3b3a3a" stroke-width="1.51"/><path d="M2949,494L3080,503L3127,364Z" fill="#282727" stroke="#282727" stroke-width="1.51"/><path d="M2905,359L2949,494L3127,364Z" fill="#302f2f" stroke="#302f2f" stroke-width="1.51"/><path d="M2938,261L2905,359L3057,252Z" fill="#404040" stroke="#404040" stroke-width="1.51"/><path d="M2945,86L2938,261L3057,252Z" fill="#4b4a4a" stroke="#4b4a4a" stroke-width="1.51"/><path d="M3034,-93L2945,86L3061,57Z" fill="#626161" stroke="#626161" stroke-width="1.51"/><path d="M2919,-109L2945,86L3034,-93Z" fill="#6c6b6b" stroke="#6c6b6b" stroke-width="1.51"/><path d="M2919,-109L3034,-93L3067,-191Z" fill="#7d7b7b" stroke="#7d7b7b" stroke-width="1.51"/><path d="M2885,-197L2919,-109L3067,-191Z" fill="#848383" stroke="#848383" stroke-width="1.51"/><path d="M2832,-116L2825,91L2919,-109Z" fill="#706f6f" stroke="#706f6f" stroke-width="1.51"/><path d="M2825,91L2771,182L2938,261Z" fill="#515050" stroke="#515050" stroke-width="1.51"/><path d="M2825,91L2938,261L2945,86Z" fill="#535252" stroke="#535252" stroke-width="1.51"/><path d="M2919,-109L2825,91L2945,86Z" fill="#646363" stroke="#646363" stroke-width="1.51"/><path d="M2905,359L2771,363L2949,494Z" fill="#323131" stroke="#323131" stroke-width="1.51"/><path d="M2771,363L2725,512L2949,494Z" fill="#2d2c2c" stroke="#2d2c2c" stroke-width="1.51"/><path d="M2771,363L2905,359L2938,261Z" fill="#3f3e3e" stroke="#3f3e3e" stroke-width="1.51"/><path d="M2771,182L2771,363L2938,261Z" fill="#464646" stroke="#464646" stroke-width="1.51"/><path d="M2885,-197L2832,-116L2919,-109Z" fill="#828181" stroke="#828181" stroke-width="1.51"/><path d="M2646,-48L2825,91L2832,-116Z" fill="#6f6e6e" stroke="#6f6e6e" stroke-width="1.51"/><path d="M2813,-282L2832,-116L2885,-197Z" fill="#878686" stroke="#878686" stroke-width="1.51"/><path d="M2574,-276L2646,-48L2813,-282Z" fill="#8d8b8b" stroke="#8d8b8b" stroke-width="1.51"/><path d="M2813,-282L2646,-48L2832,-116Z" fill="#868585" stroke="#868585" stroke-width="1.51"/><path d="M2771,182L2641,210L2771,363Z" fill="#4b4b4b" stroke="#4b4b4b" stroke-width="1.51"/><path d="M2586,56L2771,182L2825,91Z" fill="#5d5c5c" stroke="#5d5c5c" stroke-width="1.51"/><path d="M2646,-48L2586,56L2825,91Z" fill="#696868" stroke="#696868" stroke-width="1.51"/><path d="M2614,479L2442,569L2725,512Z" fill="#2e2d2d" stroke="#2e2d2d" stroke-width="1.51"/><path d="M2586,56L2641,210L2771,182Z" fill="#595858" stroke="#595858" stroke-width="1.51"/><path d="M2623,422L2725,512L2771,363Z" fill="#333232" stroke="#333232" stroke-width="1.51"/><path d="M2641,210L2623,422L2771,363Z" fill="#434343" stroke="#434343" stroke-width="1.51"/><path d="M1478,-238L1596,-216L2072,-268Z" fill="#b2b0b0" stroke="#b2b0b0" stroke-width="1.51"/><path d="M2623,422L2614,479L2725,512Z" fill="#302f2f" stroke="#302f2f" stroke-width="1.51"/><path d="M2586,56L2475,271L2641,210Z" fill="#595858" stroke="#595858" stroke-width="1.51"/><path d="M2530,392L2623,422L2641,210Z" fill="#444444" stroke="#444444" stroke-width="1.51"/><path d="M2475,271L2530,392L2641,210Z" fill="#4d4c4c" stroke="#4d4c4c" stroke-width="1.51"/><path d="M2574,-276L2425,-105L2646,-48Z" fill="#8e8c8c" stroke="#8e8c8c" stroke-width="1.51"/><path d="M2425,-105L2522,25L2646,-48Z" fill="#7c7a7a" stroke="#7c7a7a" stroke-width="1.51"/><path d="M2522,25L2586,56L2646,-48Z" fill="#706f6f" stroke="#706f6f" stroke-width="1.51"/><path d="M2437,-258L2425,-105L2574,-276Z" fill="#949393" stroke="#949393" stroke-width="1.51"/><path d="M2522,25L2475,271L2586,56Z" fill="#636262" stroke="#636262" stroke-width="1.51"/><path d="M2530,392L2614,479L2623,422Z" fill="#373636" stroke="#373636" stroke-width="1.51"/><path d="M2530,392L2442,569L2614,479Z" fill="#343333" stroke="#343333" stroke-width="1.51"/><path d="M2386,-197L2425,-105L2437,-258Z" fill="#979696" stroke="#979696" stroke-width="1.51"/><path d="M2307,251L2475,271L2522,25Z" fill="#5e5d5d" stroke="#5e5d5d" stroke-width="1.51"/><path d="M2275,25L2307,251L2522,25Z" fill="#6c6b6b" stroke="#6c6b6b" stroke-width="1.51"/><path d="M2334,510L2442,569L2530,392Z" fill="#363535" stroke="#363535" stroke-width="1.51"/><path d="M2320,396L2334,510L2530,392Z" fill="#3e3d3d" stroke="#3e3d3d" stroke-width="1.51"/><path d="M2475,271L2320,396L2530,392Z" fill="#484747" stroke="#484747" stroke-width="1.51"/><path d="M2425,-105L2275,25L2522,25Z" fill="#7c7b7b" stroke="#7c7b7b" stroke-width="1.51"/><path d="M2334,510L2155,554L2442,569Z" fill="#353434" stroke="#353434" stroke-width="1.51"/><path d="M2307,251L2320,396L2475,271Z" fill="#525151" stroke="#525151" stroke-width="1.51"/><path d="M2329,-127L2275,25L2425,-105Z" fill="#888787" stroke="#888787" stroke-width="1.51"/><path d="M2189,-281L2386,-197L2437,-258Z" fill="#9b9a9a" stroke="#9b9a9a" stroke-width="1.51"/><path d="M2275,25L2230,210L2307,251Z" fill="#686767" stroke="#686767" stroke-width="1.51"/><path d="M2386,-197L2329,-127L2425,-105Z" fill="#959494" stroke="#959494" stroke-width="1.51"/><path d="M2189,-281L2329,-127L2386,-197Z" fill="#9c9b9b" stroke="#9c9b9b" stroke-width="1.51"/><path d="M2307,251L2224,422L2320,396Z" fill="#4e4d4d" stroke="#4e4d4d" stroke-width="1.51"/><path d="M2191,-69L2275,25L2329,-127Z" fill="#898989" stroke="#898989" stroke-width="1.51"/><path d="M2189,-281L2191,-69L2329,-127Z" fill="#9f9e9e" stroke="#9f9e9e" stroke-width="1.51"/><path d="M2320,396L2224,422L2334,510Z" fill="#414040" stroke="#414040" stroke-width="1.51"/><path d="M2224,422L2155,554L2334,510Z" fill="#3d3c3c" stroke="#3d3c3c" stroke-width="1.51"/><path d="M2230,210L2224,422L2307,251Z" fill="#585858" stroke="#585858" stroke-width="1.51"/><path d="M2176,22L2230,210L2275,25Z" fill="#747373" stroke="#747373" stroke-width="1.51"/><path d="M2048,359L2224,422L2230,210Z" fill="#575757" stroke="#575757" stroke-width="1.51"/><path d="M2191,-69L2176,22L2275,25Z" fill="#828282" stroke="#828282" stroke-width="1.51"/><path d="M2189,-281L2072,-268L2191,-69Z" fill="#a3a2a2" stroke="#a3a2a2" stroke-width="1.51"/><path d="M2072,-268L2058,-54L2191,-69Z" fill="#9e9d9d" stroke="#9e9d9d" stroke-width="1.51"/><path d="M2176,22L2020,181L2230,210Z" fill="#707070" stroke="#707070" stroke-width="1.51"/><path d="M2020,181L2048,359L2230,210Z" fill="#636363" stroke="#636363" stroke-width="1.51"/><path d="M2048,359L2155,554L2224,422Z" fill="#464545" stroke="#464545" stroke-width="1.51"/><path d="M1596,-216L1885,-171L2072,-268Z" fill="#aeacac" stroke="#aeacac" stroke-width="1.51"/><path d="M2012,59L2020,181L2176,22Z" fill="#797979" stroke="#797979" stroke-width="1.51"/><path d="M2058,-54L2176,22L2191,-69Z" fill="#8a8989" stroke="#8a8989" stroke-width="1.51"/><path d="M2048,359L1989,559L2155,554Z" fill="#434343" stroke="#434343" stroke-width="1.51"/><path d="M2058,-54L2012,59L2176,22Z" fill="#848484" stroke="#848484" stroke-width="1.51"/><path d="M1630,529L1379,574L1704,541Z" fill="#4a4a4a" stroke="#4a4a4a" stroke-width="1.51"/><path d="M1879,482L1989,559L2048,359Z" fill="#484848" stroke="#484848" stroke-width="1.51"/><path d="M2020,181L1906,324L2048,359Z" fill="#626262" stroke="#626262" stroke-width="1.51"/><path d="M1885,-171L2058,-54L2072,-268Z" fill="#a8a7a7" stroke="#a8a7a7" stroke-width="1.51"/><path d="M1906,324L1879,482L2048,359Z" fill="#545454" stroke="#545454" stroke-width="1.51"/><path d="M1885,-171L1827,-77L2058,-54Z" fill="#9e9d9d" stroke="#9e9d9d" stroke-width="1.51"/><path d="M1827,-77L1879,34L2058,-54Z" fill="#929191" stroke="#929191" stroke-width="1.51"/><path d="M1879,34L2012,59L2058,-54Z" fill="#888787" stroke="#888787" stroke-width="1.51"/><path d="M1596,-216L1676,-166L1885,-171Z" fill="#b1b0b0" stroke="#b1b0b0" stroke-width="1.51"/><path d="M1861,216L1906,324L2020,181Z" fill="#6a6a6a" stroke="#6a6a6a" stroke-width="1.51"/><path d="M2012,59L1879,34L2020,181Z" fill="#7c7c7c" stroke="#7c7c7c" stroke-width="1.51"/><path d="M1879,34L1861,216L2020,181Z" fill="#777676" stroke="#777676" stroke-width="1.51"/><path d="M1879,482L1704,541L1989,559Z" fill="#464545" stroke="#464545" stroke-width="1.51"/><path d="M1239,565L1180,570L1379,574Z" fill="#515050" stroke="#515050" stroke-width="1.51"/><path d="M1669,108L1861,216L1879,34Z" fill="#7d7d7d" stroke="#7d7d7d" stroke-width="1.51"/><path d="M1674,415L1879,482L1906,324Z" fill="#555454" stroke="#555454" stroke-width="1.51"/><path d="M1760,265L1674,415L1906,324Z" fill="#626161" stroke="#626161" stroke-width="1.51"/><path d="M1861,216L1760,265L1906,324Z" fill="#696969" stroke="#696969" stroke-width="1.51"/><path d="M1741,-104L1827,-77L1885,-171Z" fill="#a5a4a4" stroke="#a5a4a4" stroke-width="1.51"/><path d="M1676,-166L1741,-104L1885,-171Z" fill="#adacac" stroke="#adacac" stroke-width="1.51"/><path d="M1669,108L1760,265L1861,216Z" fill="#747373" stroke="#747373" stroke-width="1.51"/><path d="M1827,-77L1669,108L1879,34Z" fill="#8c8b8b" stroke="#8c8b8b" stroke-width="1.51"/><path d="M1674,415L1704,541L1879,482Z" fill="#4d4d4d" stroke="#4d4d4d" stroke-width="1.51"/><path d="M1741,-104L1669,108L1827,-77Z" fill="#959494" stroke="#959494" stroke-width="1.51"/><path d="M1580,-82L1669,108L1741,-104Z" fill="#989797" stroke="#989797" stroke-width="1.51"/><path d="M1623,226L1674,415L1760,265Z" fill="#696868" stroke="#696868" stroke-width="1.51"/><path d="M1669,108L1623,226L1760,265Z" fill="#757575" stroke="#757575" stroke-width="1.51"/><path d="M1674,415L1630,529L1704,541Z" fill="#4e4d4d" stroke="#4e4d4d" stroke-width="1.51"/><path d="M1676,-166L1580,-82L1741,-104Z" fill="#aaa9a9" stroke="#aaa9a9" stroke-width="1.51"/><path d="M1580,-82L1521,14L1669,108Z" fill="#949393" stroke="#949393" stroke-width="1.51"/><path d="M1623,226L1534,422L1674,415Z" fill="#646363" stroke="#646363" stroke-width="1.51"/><path d="M1534,422L1630,529L1674,415Z" fill="#545353" stroke="#545353" stroke-width="1.51"/><path d="M1596,-216L1580,-82L1676,-166Z" fill="#b4b2b2" stroke="#b4b2b2" stroke-width="1.51"/><path d="M1476,47L1623,226L1669,108Z" fill="#838282" stroke="#838282" stroke-width="1.51"/><path d="M1521,14L1476,47L1669,108Z" fill="#8e8d8d" stroke="#8e8d8d" stroke-width="1.51"/><path d="M1364,275L1534,422L1623,226Z" fill="#6e6e6e" stroke="#6e6e6e" stroke-width="1.51"/><path d="M1534,422L1379,574L1630,529Z" fill="#525151" stroke="#525151" stroke-width="1.51"/><path d="M1364,275L1386,371L1534,422Z" fill="#696969" stroke="#696969" stroke-width="1.51"/><path d="M1485,-93L1580,-82L1596,-216Z" fill="#b1afaf" stroke="#b1afaf" stroke-width="1.51"/><path d="M1476,47L1364,275L1623,226Z" fill="#7f7e7e" stroke="#7f7e7e" stroke-width="1.51"/><path d="M1478,-238L1485,-93L1596,-216Z" fill="#b9b7b7" stroke="#b9b7b7" stroke-width="1.51"/><path d="M1485,-93L1521,14L1580,-82Z" fill="#a2a1a1" stroke="#a2a1a1" stroke-width="1.51"/><path d="M1386,371L1379,574L1534,422Z" fill="#5a5959" stroke="#5a5959" stroke-width="1.51"/><path d="M1098,-271L1225,-164L1478,-238Z" fill="#c2c0c0" stroke="#c2c0c0" stroke-width="1.51"/><path d="M1485,-93L1476,47L1521,14Z" fill="#9b9a9a" stroke="#9b9a9a" stroke-width="1.51"/><path d="M1254,114L1364,275L1476,47Z" fill="#888787" stroke="#888787" stroke-width="1.51"/><path d="M1225,-40L1476,47L1485,-93Z" fill="#a3a2a2" stroke="#a3a2a2" stroke-width="1.51"/><path d="M1478,-238L1225,-164L1485,-93Z" fill="#bdbcbc" stroke="#bdbcbc" stroke-width="1.51"/><path d="M1225,-164L1225,-40L1485,-93Z" fill="#b3b1b1" stroke="#b3b1b1" stroke-width="1.51"/><path d="M1225,-40L1254,114L1476,47Z" fill="#999898" stroke="#999898" stroke-width="1.51"/><path d="M1242,282L1222,353L1364,275Z" fill="#777676" stroke="#777676" stroke-width="1.51"/><path d="M1254,114L1242,282L1364,275Z" fill="#818080" stroke="#818080" stroke-width="1.51"/><path d="M1364,275L1222,353L1386,371Z" fill="#717171" stroke="#717171" stroke-width="1.51"/><path d="M1239,565L1379,574L1386,371Z" fill="#585757" stroke="#585757" stroke-width="1.51"/><path d="M1222,353L1239,565L1386,371Z" fill="#636262" stroke="#636262" stroke-width="1.51"/><path d="M1022,490L763,566L1180,570Z" fill="#5f5e5e" stroke="#5f5e5e" stroke-width="1.51"/><path d="M1155,342L1022,490L1180,570Z" fill="#636262" stroke="#636262" stroke-width="1.51"/><path d="M1155,342L1180,570L1222,353Z" fill="#676666" stroke="#676666" stroke-width="1.51"/><path d="M1225,-164L1168,-78L1225,-40Z" fill="#b6b5b5" stroke="#b6b5b5" stroke-width="1.51"/><path d="M1222,353L1180,570L1239,565Z" fill="#5d5b5b" stroke="#5d5b5b" stroke-width="1.51"/><path d="M1082,127L1106,284L1242,282Z" fill="#858484" stroke="#858484" stroke-width="1.51"/><path d="M1082,127L1242,282L1254,114Z" fill="#8a8989" stroke="#8a8989" stroke-width="1.51"/><path d="M1225,-40L1082,127L1254,114Z" fill="#999898" stroke="#999898" stroke-width="1.51"/><path d="M1168,-78L1082,127L1225,-40Z" fill="#a5a4a4" stroke="#a5a4a4" stroke-width="1.51"/><path d="M1155,342L1222,353L1242,282Z" fill="#767676" stroke="#767676" stroke-width="1.51"/><path d="M1106,284L1155,342L1242,282Z" fill="#7a7a7a" stroke="#7a7a7a" stroke-width="1.51"/><path d="M1098,-271L1168,-78L1225,-164Z" fill="#c6c5c5" stroke="#c6c5c5" stroke-width="1.51"/><path d="M1098,-271L1006,-276L1168,-78Z" fill="#c9c7c7" stroke="#c9c7c7" stroke-width="1.51"/><path d="M1000,61L1082,127L1168,-78Z" fill="#a1a0a0" stroke="#a1a0a0" stroke-width="1.51"/><path d="M1000,313L1022,490L1155,342Z" fill="#717070" stroke="#717070" stroke-width="1.51"/><path d="M1006,-276L916,-15L1168,-78Z" fill="#c3c2c2" stroke="#c3c2c2" stroke-width="1.51"/><path d="M916,-15L1000,61L1168,-78Z" fill="#acabab" stroke="#acabab" stroke-width="1.51"/><path d="M1106,284L1000,313L1155,342Z" fill="#7c7c7c" stroke="#7c7c7c" stroke-width="1.51"/><path d="M535,541L428,563L661,543Z" fill="#706f6f" stroke="#706f6f" stroke-width="1.51"/><path d="M661,543L428,563L763,566Z" fill="#6b6b6b" stroke="#6b6b6b" stroke-width="1.51"/><path d="M1082,127L969,198L1106,284Z" fill="#8c8b8b" stroke="#8c8b8b" stroke-width="1.51"/><path d="M969,198L1000,313L1106,284Z" fill="#858484" stroke="#858484" stroke-width="1.51"/><path d="M1000,61L969,198L1082,127Z" fill="#979696" stroke="#979696" stroke-width="1.51"/><path d="M869,-273L856,-21L916,-15Z" fill="#c5c4c4" stroke="#c5c4c4" stroke-width="1.51"/><path d="M869,-273L916,-15L1006,-276Z" fill="#d0cece" stroke="#d0cece" stroke-width="1.51"/><path d="M1000,313L823,365L1022,490Z" fill="#757474" stroke="#757474" stroke-width="1.51"/><path d="M823,365L763,566L1022,490Z" fill="#6c6b6b" stroke="#6c6b6b" stroke-width="1.51"/><path d="M882,34L969,198L1000,61Z" fill="#9f9e9e" stroke="#9f9e9e" stroke-width="1.51"/><path d="M969,198L835,209L1000,313Z" fill="#8c8b8b" stroke="#8c8b8b" stroke-width="1.51"/><path d="M916,-15L882,34L1000,61Z" fill="#aaa9a9" stroke="#aaa9a9" stroke-width="1.51"/><path d="M835,209L823,365L1000,313Z" fill="#878686" stroke="#878686" stroke-width="1.51"/><path d="M882,34L835,209L969,198Z" fill="#9a9999" stroke="#9a9999" stroke-width="1.51"/><path d="M687,-51L856,-21L869,-273Z" fill="#cbcaca" stroke="#cbcaca" stroke-width="1.51"/><path d="M710,-270L687,-51L869,-273Z" fill="#d8d7d7" stroke="#d8d7d7" stroke-width="1.51"/><path d="M856,-21L882,34L916,-15Z" fill="#b1b0b0" stroke="#b1b0b0" stroke-width="1.51"/><path d="M856,-21L638,59L882,34Z" fill="#b1b0b0" stroke="#b1b0b0" stroke-width="1.51"/><path d="M638,59L835,209L882,34Z" fill="#a6a5a5" stroke="#a6a5a5" stroke-width="1.51"/><path d="M718,359L763,566L823,365Z" fill="#777575" stroke="#777575" stroke-width="1.51"/><path d="M711,280L823,365L835,209Z" fill="#8d8c8c" stroke="#8d8c8c" stroke-width="1.51"/><path d="M687,-51L638,59L856,-21Z" fill="#b9b8b8" stroke="#b9b8b8" stroke-width="1.51"/><path d="M718,359L661,543L763,566Z" fill="#717070" stroke="#717070" stroke-width="1.51"/><path d="M711,280L718,359L823,365Z" fill="#878686" stroke="#878686" stroke-width="1.51"/><path d="M638,59L711,280L835,209Z" fill="#9d9b9b" stroke="#9d9b9b" stroke-width="1.51"/><path d="M562,-191L687,-51L710,-270Z" fill="#dddbdb" stroke="#dddbdb" stroke-width="1.51"/><path d="M638,59L579,176L711,280Z" fill="#a2a1a1" stroke="#a2a1a1" stroke-width="1.51"/><path d="M506,329L535,541L661,543Z" fill="#797878" stroke="#797878" stroke-width="1.51"/><path d="M419,-247L562,-191L710,-270Z" fill="#e2e0e0" stroke="#e2e0e0" stroke-width="1.51"/><path d="M711,280L506,329L718,359Z" fill="#8e8d8d" stroke="#8e8d8d" stroke-width="1.51"/><path d="M506,329L661,543L718,359Z" fill="#7f7e7e" stroke="#7f7e7e" stroke-width="1.51"/><path d="M579,176L506,329L711,280Z" fill="#989898" stroke="#989898" stroke-width="1.51"/><path d="M530,20L638,59L687,-51Z" fill="#bcbbbb" stroke="#bcbbbb" stroke-width="1.51"/><path d="M562,-191L530,20L687,-51Z" fill="#cdcbcb" stroke="#cdcbcb" stroke-width="1.51"/><path d="M483,-19L530,20L562,-191Z" fill="#cfcdcd" stroke="#cfcdcd" stroke-width="1.51"/><path d="M530,20L579,176L638,59Z" fill="#b2b0b0" stroke="#b2b0b0" stroke-width="1.51"/><path d="M257,515L63,578L428,563Z" fill="#7e7c7c" stroke="#7e7c7c" stroke-width="1.51"/><path d="M506,329L378,367L535,541Z" fill="#868585" stroke="#868585" stroke-width="1.51"/><path d="M406,-107L483,-19L562,-191Z" fill="#d9d7d7" stroke="#d9d7d7" stroke-width="1.51"/><path d="M530,20L350,84L579,176Z" fill="#b5b4b4" stroke="#b5b4b4" stroke-width="1.51"/><path d="M350,84L390,251L579,176Z" fill="#acabab" stroke="#acabab" stroke-width="1.51"/><path d="M390,251L506,329L579,176Z" fill="#9f9e9e" stroke="#9f9e9e" stroke-width="1.51"/><path d="M378,367L428,563L535,541Z" fill="#7d7b7b" stroke="#7d7b7b" stroke-width="1.51"/><path d="M419,-247L406,-107L562,-191Z" fill="#e7e5e5" stroke="#e7e5e5" stroke-width="1.51"/><path d="M483,-19L350,84L530,20Z" fill="#c1bfbf" stroke="#c1bfbf" stroke-width="1.51"/><path d="M390,251L378,367L506,329Z" fill="#9a9999" stroke="#9a9999" stroke-width="1.51"/><path d="M406,-107L350,84L483,-19Z" fill="#cbcaca" stroke="#cbcaca" stroke-width="1.51"/><path d="M284,73L350,84L406,-107Z" fill="#cac8c8" stroke="#cac8c8" stroke-width="1.51"/><path d="M262,-129L284,73L406,-107Z" fill="#d8d7d7" stroke="#d8d7d7" stroke-width="1.51"/><path d="M262,-129L406,-107L419,-247Z" fill="#edebeb" stroke="#edebeb" stroke-width="1.51"/><path d="M94,-236L170,-181L419,-247Z" fill="#f3f1f1" stroke="#f3f1f1" stroke-width="1.51"/><path d="M378,367L257,515L428,563Z" fill="#828181" stroke="#828181" stroke-width="1.51"/><path d="M170,-181L262,-129L419,-247Z" fill="#f1efef" stroke="#f1efef" stroke-width="1.51"/><path d="M350,84L224,246L390,251Z" fill="#afaeae" stroke="#afaeae" stroke-width="1.51"/><path d="M284,73L224,246L350,84Z" fill="#bab8b8" stroke="#bab8b8" stroke-width="1.51"/><path d="M215,329L378,367L390,251Z" fill="#9f9e9e" stroke="#9f9e9e" stroke-width="1.51"/><path d="M224,246L215,329L390,251Z" fill="#a7a6a6" stroke="#a7a6a6" stroke-width="1.51"/><path d="M215,329L257,515L378,367Z" fill="#929090" stroke="#929090" stroke-width="1.51"/><path d="M110,135L224,246L284,73Z" fill="#b9b8b8" stroke="#b9b8b8" stroke-width="1.51"/><path d="M262,-129L95,-42L284,73Z" fill="#d8d6d6" stroke="#d8d6d6" stroke-width="1.51"/><path d="M95,-42L110,135L284,73Z" fill="#c7c6c6" stroke="#c7c6c6" stroke-width="1.51"/><path d="M110,135L132,237L224,246Z" fill="#b1b0b0" stroke="#b1b0b0" stroke-width="1.51"/><path d="M215,329L40,427L257,515Z" fill="#908e8e" stroke="#908e8e" stroke-width="1.51"/><path d="M170,-181L95,-42L262,-129Z" fill="#e9e7e7" stroke="#e9e7e7" stroke-width="1.51"/><path d="M40,427L63,578L257,515Z" fill="#858383" stroke="#858383" stroke-width="1.51"/><path d="M132,237L215,329L224,246Z" fill="#a9a8a8" stroke="#a9a8a8" stroke-width="1.51"/><path d="M132,237L40,427L215,329Z" fill="#a09f9f" stroke="#a09f9f" stroke-width="1.51"/><path d="M-254,-234L-62,-173L94,-236Z" fill="#f3f1f1" stroke="#f3f1f1" stroke-width="1.51"/><path d="M-24,286L40,427L132,237Z" fill="#a3a2a2" stroke="#a3a2a2" stroke-width="1.51"/><path d="M94,-236L95,-42L170,-181Z" fill="#f1efef" stroke="#f1efef" stroke-width="1.51"/><path d="M94,-236L-62,-173L95,-42Z" fill="#f0eeee" stroke="#f0eeee" stroke-width="1.51"/><path d="M95,-42L-85,55L110,135Z" fill="#c8c7c7" stroke="#c8c7c7" stroke-width="1.51"/><path d="M110,135L-24,286L132,237Z" fill="#b0aeae" stroke="#b0aeae" stroke-width="1.51"/><path d="M-62,-173L-80,-133L95,-42Z" fill="#e9e7e7" stroke="#e9e7e7" stroke-width="1.51"/><path d="M-85,55L-24,286L110,135Z" fill="#b8b6b6" stroke="#b8b6b6" stroke-width="1.51"/><path d="M-103,473L-218,480L63,578Z" fill="#848383" stroke="#848383" stroke-width="1.51"/><path d="M-80,-133L-85,55L95,-42Z" fill="#d9d7d7" stroke="#d9d7d7" stroke-width="1.51"/><path d="M40,427L-103,473L63,578Z" fill="#878585" stroke="#878585" stroke-width="1.51"/><path d="M-24,286L-95,313L40,427Z" fill="#9e9d9d" stroke="#9e9d9d" stroke-width="1.51"/><path d="M-95,313L-103,473L40,427Z" fill="#939292" stroke="#939292" stroke-width="1.51"/><path d="M-85,55L-229,198L-24,286Z" fill="#b5b3b3" stroke="#b5b3b3" stroke-width="1.51"/><path d="M-229,198L-95,313L-24,286Z" fill="#aaa9a9" stroke="#aaa9a9" stroke-width="1.51"/><path d="M-192,391L-103,473L-95,313Z" fill="#959393" stroke="#959393" stroke-width="1.51"/><path d="M-201,46L-229,198L-85,55Z" fill="#c1bfbf" stroke="#c1bfbf" stroke-width="1.51"/><path d="M-201,46L-85,55L-80,-133Z" fill="#d3d2d2" stroke="#d3d2d2" stroke-width="1.51"/><path d="M-254,-234L-80,-133L-62,-173Z" fill="#f3f1f1" stroke="#f3f1f1" stroke-width="1.51"/><path d="M-286,-130L-201,46L-80,-133Z" fill="#dfdddd" stroke="#dfdddd" stroke-width="1.51"/><path d="M-254,-234L-286,-130L-80,-133Z" fill="#f3f1f1" stroke="#f3f1f1" stroke-width="1.51"/><path d="M-229,198L-192,391L-95,313Z" fill="#a5a4a4" stroke="#a5a4a4" stroke-width="1.51"/><path d="M-192,391L-218,480L-103,473Z" fill="#8c8b8b" stroke="#8c8b8b" stroke-width="1.51"/><path d="M-229,198L-218,480L-192,391Z" fill="#9b9a9a" stroke="#9b9a9a" stroke-width="1.51"/><path d="M-286,-130L-229,198L-201,46Z" fill="#cac9c9" stroke="#cac9c9" stroke-width="1.51"/><path d="M-229,198L-286,-130L-218,480Z" fill="#b5b3b3" stroke="#b5b3b3" stroke-width="1.51"/></svg>