<svg xmlns="http://www.w3.org/2000/svg" width="3000" height="200"><path d="M143,291L-77,284L380,307Z" fill="#275166" stroke="#275166" stroke-width="1.51"/><path d="M126,-99L518,-88L783,-106Z" fill="#203b49" stroke="#203b49" stroke-width="1.51"/><path d="M-34,-108L126,-99L783,-106Z" fill="#1f3845" stroke="#1f3845" stroke-width="1.51"/><path d="M911,306L380,307L1114,308Z" fill="#295971" stroke="#295971" stroke-width="1.51"/><path d="M-34,-108L783,-106L1337,-107Z" fill="#203c4b" stroke="#203c4b" stroke-width="1.51"/><path d="M845,-102L987,-94L1337,-107Z" fill="#224050" stroke="#224050" stroke-width="1.51"/><path d="M783,-106L845,-102L1337,-107Z" fill="#21404f" stroke="#21404f" stroke-width="1.51"/><path d="M1337,-107L1593,-95L1701,-99Z" fill="#234455" stroke="#234455" stroke-width="1.51"/><path d="M1829,288L1522,300L1959,294Z" fill="#2b607a" stroke="#2b607a" stroke-width="1.51"/><path d="M1522,300L1114,308L2039,300Z" fill="#2b5f79" stroke="#2b5f79" stroke-width="1.51"/><path d="M1959,294L1522,300L2039,300Z" fill="#2b607b" stroke="#2b607b" stroke-width="1.51"/><path d="M1701,-99L1926,-90L2153,-94Z" fill="#244758" stroke="#244758" stroke-width="1.51"/><path d="M2394,290L2039,300L2438,295Z" fill="#2c6480" stroke="#2c6480" stroke-width="1.51"/><path d="M-34,-108L1337,-107L2800,-110Z" fill="#224252" stroke="#224252" stroke-width="1.51"/><path d="M2294,-95L2510,-99L2800,-110Z" fill="#264b5e" stroke="#264b5e" stroke-width="1.51"/><path d="M2153,-94L2294,-95L2800,-110Z" fill="#254a5d" stroke="#254a5d" stroke-width="1.51"/><path d="M1701,-99L2153,-94L2800,-110Z" fill="#25495b" stroke="#25495b" stroke-width="1.51"/><path d="M1337,-107L1701,-99L2800,-110Z" fill="#244757" stroke="#244757" stroke-width="1.51"/><path d="M2510,-99L2721,-97L2800,-110Z" fill="#254c60" stroke="#254c60" stroke-width="1.51"/><path d="M2438,295L2039,300L2893,305Z" fill="#2c6682" stroke="#2c6682" stroke-width="1.51"/><path d="M2648,291L2438,295L2893,305Z" fill="#2d6784" stroke="#2d6784" stroke-width="1.51"/><path d="M2751,281L2648,291L2893,305Z" fill="#2d6885" stroke="#2d6885" stroke-width="1.51"/><path d="M3023,0L3010,45L3044,85Z" fill="#295b74" stroke="#295b74" stroke-width="1.51"/><path d="M2800,-110L2953,-91L3071,-79Z" fill="#264f64" stroke="#264f64" stroke-width="1.51"/><path d="M2953,-91L2976,-72L3071,-79Z" fill="#275166" stroke="#275166" stroke-width="1.51"/><path d="M3023,0L3044,85L3085,-30Z" fill="#295a72" stroke="#295a72" stroke-width="1.51"/><path d="M3054,254L3003,302L3087,234Z" fill="#2d6886" stroke="#2d6886" stroke-width="1.51"/><path d="M3044,85L3012,120L3101,140Z" fill="#2b5f7a" stroke="#2b5f7a" stroke-width="1.51"/><path d="M2984,198L3087,234L3101,140Z" fill="#2c6480" stroke="#2c6480" stroke-width="1.51"/><path d="M3012,120L2984,198L3101,140Z" fill="#2b617c" stroke="#2b617c" stroke-width="1.51"/><path d="M3085,-30L3044,85L3101,140Z" fill="#2a5d76" stroke="#2a5d76" stroke-width="1.51"/><path d="M3071,-79L3023,0L3085,-30Z" fill="#27556c" stroke="#27556c" stroke-width="1.51"/><path d="M2984,198L3054,254L3087,234Z" fill="#2c6682" stroke="#2c6682" stroke-width="1.51"/><path d="M2976,-72L3023,0L3071,-79Z" fill="#28546a" stroke="#28546a" stroke-width="1.51"/><path d="M2984,198L3003,302L3054,254Z" fill="#2d6784" stroke="#2d6784" stroke-width="1.51"/><path d="M2967,182L2984,198L3012,120Z" fill="#2c627d" stroke="#2c627d" stroke-width="1.51"/><path d="M3010,45L3012,120L3044,85Z" fill="#2a5e77" stroke="#2a5e77" stroke-width="1.51"/><path d="M2984,198L2921,243L3003,302Z" fill="#2d6784" stroke="#2d6784" stroke-width="1.51"/><path d="M3010,45L2903,97L3012,120Z" fill="#2a5d77" stroke="#2a5d77" stroke-width="1.51"/><path d="M2904,19L3010,45L3023,0Z" fill="#295a72" stroke="#295a72" stroke-width="1.51"/><path d="M2976,-72L2904,19L3023,0Z" fill="#28566d" stroke="#28566d" stroke-width="1.51"/><path d="M2903,97L2922,132L3012,120Z" fill="#2b5e78" stroke="#2b5e78" stroke-width="1.51"/><path d="M2922,132L2967,182L3012,120Z" fill="#2b607b" stroke="#2b607b" stroke-width="1.51"/><path d="M2904,19L2899,91L3010,45Z" fill="#2a5b74" stroke="#2a5b74" stroke-width="1.51"/><path d="M2899,91L2903,97L3010,45Z" fill="#2a5c76" stroke="#2a5c76" stroke-width="1.51"/><path d="M1670,285L1522,300L1829,288Z" fill="#2b5f79" stroke="#2b5f79" stroke-width="1.51"/><path d="M2921,243L2893,305L3003,302Z" fill="#2d6986" stroke="#2d6986" stroke-width="1.51"/><path d="M2953,-91L2904,19L2976,-72Z" fill="#285369" stroke="#285369" stroke-width="1.51"/><path d="M2967,182L2921,243L2984,198Z" fill="#2c6480" stroke="#2c6480" stroke-width="1.51"/><path d="M2864,-52L2904,19L2953,-91Z" fill="#275469" stroke="#275469" stroke-width="1.51"/><path d="M2922,132L2894,192L2967,182Z" fill="#2c617c" stroke="#2c617c" stroke-width="1.51"/><path d="M2894,192L2921,243L2967,182Z" fill="#2c647f" stroke="#2c647f" stroke-width="1.51"/><path d="M2800,-110L2864,-52L2953,-91Z" fill="#264f64" stroke="#264f64" stroke-width="1.51"/><path d="M2538,278L2438,295L2648,291Z" fill="#2d6582" stroke="#2d6582" stroke-width="1.51"/><path d="M2903,97L2860,155L2922,132Z" fill="#2b5e79" stroke="#2b5e79" stroke-width="1.51"/><path d="M2860,155L2894,192L2922,132Z" fill="#2b607b" stroke="#2b607b" stroke-width="1.51"/><path d="M2843,28L2899,91L2904,19Z" fill="#295a73" stroke="#295a73" stroke-width="1.51"/><path d="M2894,192L2893,305L2921,243Z" fill="#2d6683" stroke="#2d6683" stroke-width="1.51"/><path d="M2778,234L2893,305L2894,192Z" fill="#2c6582" stroke="#2c6582" stroke-width="1.51"/><path d="M2826,103L2860,155L2899,91Z" fill="#2a5e77" stroke="#2a5e77" stroke-width="1.51"/><path d="M2899,91L2860,155L2903,97Z" fill="#2a5e78" stroke="#2a5e78" stroke-width="1.51"/><path d="M2864,-52L2843,28L2904,19Z" fill="#28576e" stroke="#28576e" stroke-width="1.51"/><path d="M2843,28L2826,103L2899,91Z" fill="#2a5c74" stroke="#2a5c74" stroke-width="1.51"/><path d="M2778,234L2768,253L2893,305Z" fill="#2c6683" stroke="#2c6683" stroke-width="1.51"/><path d="M2860,155L2778,234L2894,192Z" fill="#2c627d" stroke="#2c627d" stroke-width="1.51"/><path d="M2768,253L2751,281L2893,305Z" fill="#2c6785" stroke="#2c6785" stroke-width="1.51"/><path d="M2814,30L2826,103L2843,28Z" fill="#295a72" stroke="#295a72" stroke-width="1.51"/><path d="M2765,9L2814,30L2864,-52Z" fill="#28566d" stroke="#28566d" stroke-width="1.51"/><path d="M2800,-110L2765,9L2864,-52Z" fill="#275267" stroke="#275267" stroke-width="1.51"/><path d="M2814,30L2843,28L2864,-52Z" fill="#28566e" stroke="#28566e" stroke-width="1.51"/><path d="M2826,103L2729,175L2860,155Z" fill="#2b5f79" stroke="#2b5f79" stroke-width="1.51"/><path d="M2729,175L2778,234L2860,155Z" fill="#2b617c" stroke="#2b617c" stroke-width="1.51"/><path d="M2740,113L2729,175L2826,103Z" fill="#2b5e77" stroke="#2b5e77" stroke-width="1.51"/><path d="M2721,-97L2765,9L2800,-110Z" fill="#275065" stroke="#275065" stroke-width="1.51"/><path d="M2765,9L2740,113L2814,30Z" fill="#295972" stroke="#295972" stroke-width="1.51"/><path d="M2814,30L2740,113L2826,103Z" fill="#2a5c74" stroke="#2a5c74" stroke-width="1.51"/><path d="M2721,-97L2732,7L2765,9Z" fill="#275369" stroke="#275369" stroke-width="1.51"/><path d="M2203,266L2039,300L2394,290Z" fill="#2c637e" stroke="#2c637e" stroke-width="1.51"/><path d="M2510,-99L2654,-64L2721,-97Z" fill="#254d61" stroke="#254d61" stroke-width="1.51"/><path d="M2732,7L2690,88L2740,113Z" fill="#295a73" stroke="#295a73" stroke-width="1.51"/><path d="M2732,7L2740,113L2765,9Z" fill="#295971" stroke="#295971" stroke-width="1.51"/><path d="M2729,175L2768,253L2778,234Z" fill="#2c637f" stroke="#2c637f" stroke-width="1.51"/><path d="M2729,175L2751,281L2768,253Z" fill="#2c6480" stroke="#2c6480" stroke-width="1.51"/><path d="M2729,175L2652,183L2751,281Z" fill="#2c627e" stroke="#2c627e" stroke-width="1.51"/><path d="M2652,183L2648,291L2751,281Z" fill="#2c6480" stroke="#2c6480" stroke-width="1.51"/><path d="M2654,-64L2676,0L2721,-97Z" fill="#265165" stroke="#265165" stroke-width="1.51"/><path d="M2721,-97L2676,0L2732,7Z" fill="#275368" stroke="#275368" stroke-width="1.51"/><path d="M2690,88L2639,163L2729,175Z" fill="#2b5e77" stroke="#2b5e77" stroke-width="1.51"/><path d="M2676,0L2690,88L2732,7Z" fill="#29586f" stroke="#29586f" stroke-width="1.51"/><path d="M2690,88L2729,175L2740,113Z" fill="#2a5d77" stroke="#2a5d77" stroke-width="1.51"/><path d="M2639,163L2652,183L2729,175Z" fill="#2b5f7a" stroke="#2b5f7a" stroke-width="1.51"/><path d="M2655,91L2639,163L2690,88Z" fill="#2a5c75" stroke="#2a5c75" stroke-width="1.51"/><path d="M2594,267L2648,291L2652,183Z" fill="#2c6480" stroke="#2c6480" stroke-width="1.51"/><path d="M2510,-99L2595,-47L2654,-64Z" fill="#264e63" stroke="#264e63" stroke-width="1.51"/><path d="M2676,0L2655,91L2690,88Z" fill="#295971" stroke="#295971" stroke-width="1.51"/><path d="M2594,267L2538,278L2648,291Z" fill="#2c6582" stroke="#2c6582" stroke-width="1.51"/><path d="M2610,110L2639,163L2655,91Z" fill="#2a5c75" stroke="#2a5c75" stroke-width="1.51"/><path d="M2585,86L2655,91L2676,0Z" fill="#295971" stroke="#295971" stroke-width="1.51"/><path d="M2604,-33L2585,86L2676,0Z" fill="#28566d" stroke="#28566d" stroke-width="1.51"/><path d="M2654,-64L2604,-33L2676,0Z" fill="#275268" stroke="#275268" stroke-width="1.51"/><path d="M2582,193L2594,267L2652,183Z" fill="#2c627c" stroke="#2c627c" stroke-width="1.51"/><path d="M2595,-47L2604,-33L2654,-64Z" fill="#275165" stroke="#275165" stroke-width="1.51"/><path d="M2585,86L2610,110L2655,91Z" fill="#2a5b73" stroke="#2a5b73" stroke-width="1.51"/><path d="M2639,163L2582,193L2652,183Z" fill="#2b5f7a" stroke="#2b5f7a" stroke-width="1.51"/><path d="M2294,-95L2435,-75L2510,-99Z" fill="#254b5e" stroke="#254b5e" stroke-width="1.51"/><path d="M2535,60L2585,86L2604,-33Z" fill="#29576e" stroke="#29576e" stroke-width="1.51"/><path d="M2610,110L2582,193L2639,163Z" fill="#2b5e77" stroke="#2b5e77" stroke-width="1.51"/><path d="M2499,143L2582,193L2585,86Z" fill="#2b5d76" stroke="#2b5d76" stroke-width="1.51"/><path d="M2539,-23L2535,60L2604,-33Z" fill="#28546a" stroke="#28546a" stroke-width="1.51"/><path d="M2585,86L2582,193L2610,110Z" fill="#2b5c75" stroke="#2b5c75" stroke-width="1.51"/><path d="M2294,-95L2387,-71L2435,-75Z" fill="#254c5f" stroke="#254c5f" stroke-width="1.51"/><path d="M2582,193L2521,236L2594,267Z" fill="#2c627d" stroke="#2c627d" stroke-width="1.51"/><path d="M2595,-47L2539,-23L2604,-33Z" fill="#275167" stroke="#275167" stroke-width="1.51"/><path d="M2521,236L2538,278L2594,267Z" fill="#2c6480" stroke="#2c6480" stroke-width="1.51"/><path d="M2510,-99L2539,-23L2595,-47Z" fill="#265064" stroke="#265064" stroke-width="1.51"/><path d="M2535,60L2499,143L2585,86Z" fill="#2a5a72" stroke="#2a5a72" stroke-width="1.51"/><path d="M987,-94L1183,-91L1337,-107Z" fill="#224252" stroke="#224252" stroke-width="1.51"/><path d="M2499,143L2521,236L2582,193Z" fill="#2c5f79" stroke="#2c5f79" stroke-width="1.51"/><path d="M2499,143L2465,222L2521,236Z" fill="#2b607a" stroke="#2b607a" stroke-width="1.51"/><path d="M2441,102L2499,143L2535,60Z" fill="#2a5a72" stroke="#2a5a72" stroke-width="1.51"/><path d="M2446,61L2441,102L2535,60Z" fill="#295870" stroke="#295870" stroke-width="1.51"/><path d="M2510,-99L2435,-75L2539,-23Z" fill="#264e62" stroke="#264e62" stroke-width="1.51"/><path d="M2435,-75L2411,-21L2539,-23Z" fill="#265065" stroke="#265065" stroke-width="1.51"/><path d="M2446,61L2535,60L2539,-23Z" fill="#28566d" stroke="#28566d" stroke-width="1.51"/><path d="M2411,-21L2446,61L2539,-23Z" fill="#28546a" stroke="#28546a" stroke-width="1.51"/><path d="M2521,236L2438,295L2538,278Z" fill="#2c6480" stroke="#2c6480" stroke-width="1.51"/><path d="M2465,222L2438,295L2521,236Z" fill="#2c627e" stroke="#2c627e" stroke-width="1.51"/><path d="M2404,190L2465,222L2499,143Z" fill="#2b5e78" stroke="#2b5e78" stroke-width="1.51"/><path d="M2441,102L2404,190L2499,143Z" fill="#2a5c74" stroke="#2a5c74" stroke-width="1.51"/><path d="M2394,290L2438,295L2465,222Z" fill="#2c647f" stroke="#2c647f" stroke-width="1.51"/><path d="M2404,190L2394,290L2465,222Z" fill="#2b617c" stroke="#2b617c" stroke-width="1.51"/><path d="M2344,153L2404,190L2441,102Z" fill="#2a5c74" stroke="#2a5c74" stroke-width="1.51"/><path d="M2346,41L2441,102L2446,61Z" fill="#29576f" stroke="#29576f" stroke-width="1.51"/><path d="M2411,-21L2346,41L2446,61Z" fill="#28556b" stroke="#28556b" stroke-width="1.51"/><path d="M2357,-8L2346,41L2411,-21Z" fill="#285369" stroke="#285369" stroke-width="1.51"/><path d="M2387,-71L2411,-21L2435,-75Z" fill="#264e62" stroke="#264e62" stroke-width="1.51"/><path d="M2346,41L2344,153L2441,102Z" fill="#295971" stroke="#295971" stroke-width="1.51"/><path d="M2335,240L2394,290L2404,190Z" fill="#2c617c" stroke="#2c617c" stroke-width="1.51"/><path d="M2261,237L2203,266L2394,290Z" fill="#2c627d" stroke="#2c627d" stroke-width="1.51"/><path d="M2331,203L2335,240L2404,190Z" fill="#2b5f79" stroke="#2b5f79" stroke-width="1.51"/><path d="M2387,-71L2357,-8L2411,-21Z" fill="#275065" stroke="#275065" stroke-width="1.51"/><path d="M2335,240L2261,237L2394,290Z" fill="#2c627d" stroke="#2c627d" stroke-width="1.51"/><path d="M2344,153L2331,203L2404,190Z" fill="#2b5d76" stroke="#2b5d76" stroke-width="1.51"/><path d="M2279,110L2344,153L2346,41Z" fill="#2a5970" stroke="#2a5970" stroke-width="1.51"/><path d="M2313,-29L2357,-8L2387,-71Z" fill="#264f64" stroke="#264f64" stroke-width="1.51"/><path d="M2294,-95L2313,-29L2387,-71Z" fill="#264d60" stroke="#264d60" stroke-width="1.51"/><path d="M2305,31L2279,110L2346,41Z" fill="#29566d" stroke="#29566d" stroke-width="1.51"/><path d="M2305,31L2346,41L2357,-8Z" fill="#28546a" stroke="#28546a" stroke-width="1.51"/><path d="M2313,-29L2305,31L2357,-8Z" fill="#275268" stroke="#275268" stroke-width="1.51"/><path d="M2254,166L2331,203L2344,153Z" fill="#2b5d75" stroke="#2b5d75" stroke-width="1.51"/><path d="M2279,110L2254,166L2344,153Z" fill="#2a5a73" stroke="#2a5a73" stroke-width="1.51"/><path d="M2331,203L2261,237L2335,240Z" fill="#2b607a" stroke="#2b607a" stroke-width="1.51"/><path d="M2254,166L2261,237L2331,203Z" fill="#2b5e78" stroke="#2b5e78" stroke-width="1.51"/><path d="M2261,-49L2214,3L2305,31Z" fill="#275166" stroke="#275166" stroke-width="1.51"/><path d="M2219,51L2279,110L2305,31Z" fill="#29566d" stroke="#29566d" stroke-width="1.51"/><path d="M2261,-49L2305,31L2313,-29Z" fill="#275066" stroke="#275066" stroke-width="1.51"/><path d="M2294,-95L2261,-49L2313,-29Z" fill="#264d61" stroke="#264d61" stroke-width="1.51"/><path d="M2214,3L2219,51L2305,31Z" fill="#28546a" stroke="#28546a" stroke-width="1.51"/><path d="M2153,-94L2261,-49L2294,-95Z" fill="#254b5e" stroke="#254b5e" stroke-width="1.51"/><path d="M2179,114L2254,166L2279,110Z" fill="#2a5971" stroke="#2a5971" stroke-width="1.51"/><path d="M2219,51L2179,114L2279,110Z" fill="#29576e" stroke="#29576e" stroke-width="1.51"/><path d="M2153,-94L2214,3L2261,-49Z" fill="#264d61" stroke="#264d61" stroke-width="1.51"/><path d="M2196,245L2203,266L2261,237Z" fill="#2c607b" stroke="#2c607b" stroke-width="1.51"/><path d="M2254,166L2195,232L2261,237Z" fill="#2b5e78" stroke="#2b5e78" stroke-width="1.51"/><path d="M2195,232L2196,245L2261,237Z" fill="#2c607a" stroke="#2c607a" stroke-width="1.51"/><path d="M2179,114L2195,232L2254,166Z" fill="#2b5b74" stroke="#2b5b74" stroke-width="1.51"/><path d="M2179,114L2118,240L2195,232Z" fill="#2b5c75" stroke="#2b5c75" stroke-width="1.51"/><path d="M2118,240L2039,300L2203,266Z" fill="#2b617c" stroke="#2b617c" stroke-width="1.51"/><path d="M2153,-94L2143,21L2214,3Z" fill="#264f63" stroke="#264f63" stroke-width="1.51"/><path d="M2214,3L2152,35L2219,51Z" fill="#28546a" stroke="#28546a" stroke-width="1.51"/><path d="M2152,35L2179,114L2219,51Z" fill="#28556c" stroke="#28556c" stroke-width="1.51"/><path d="M1926,-90L2019,-52L2153,-94Z" fill="#25495c" stroke="#25495c" stroke-width="1.51"/><path d="M2143,21L2152,35L2214,3Z" fill="#275268" stroke="#275268" stroke-width="1.51"/><path d="M2077,200L2118,240L2179,114Z" fill="#2a5b74" stroke="#2a5b74" stroke-width="1.51"/><path d="M2196,245L2118,240L2203,266Z" fill="#2b607a" stroke="#2b607a" stroke-width="1.51"/><path d="M562,286L380,307L911,306Z" fill="#28576e" stroke="#28576e" stroke-width="1.51"/><path d="M2085,-50L2143,21L2153,-94Z" fill="#264d61" stroke="#264d61" stroke-width="1.51"/><path d="M2195,232L2118,240L2196,245Z" fill="#2b5f79" stroke="#2b5f79" stroke-width="1.51"/><path d="M2019,-52L2085,-50L2153,-94Z" fill="#254b5e" stroke="#254b5e" stroke-width="1.51"/><path d="M2109,55L2061,169L2179,114Z" fill="#29576f" stroke="#29576f" stroke-width="1.51"/><path d="M2061,169L2077,200L2179,114Z" fill="#2a5a72" stroke="#2a5a72" stroke-width="1.51"/><path d="M2152,35L2109,55L2179,114Z" fill="#28556c" stroke="#28556c" stroke-width="1.51"/><path d="M2085,-50L2101,16L2143,21Z" fill="#275065" stroke="#275065" stroke-width="1.51"/><path d="M2143,21L2109,55L2152,35Z" fill="#285469" stroke="#285469" stroke-width="1.51"/><path d="M2058,53L2061,169L2109,55Z" fill="#29566d" stroke="#29566d" stroke-width="1.51"/><path d="M2101,16L2109,55L2143,21Z" fill="#285369" stroke="#285369" stroke-width="1.51"/><path d="M2077,200L2039,300L2118,240Z" fill="#2b5f79" stroke="#2b5f79" stroke-width="1.51"/><path d="M2058,53L2017,158L2061,169Z" fill="#29576f" stroke="#29576f" stroke-width="1.51"/><path d="M2085,-50L2042,19L2101,16Z" fill="#275064" stroke="#275064" stroke-width="1.51"/><path d="M2101,16L2058,53L2109,55Z" fill="#285369" stroke="#285369" stroke-width="1.51"/><path d="M1701,-99L1790,-73L1926,-90Z" fill="#244759" stroke="#244759" stroke-width="1.51"/><path d="M2013,205L2039,300L2077,200Z" fill="#2b5e77" stroke="#2b5e77" stroke-width="1.51"/><path d="M2042,19L2058,53L2101,16Z" fill="#285368" stroke="#285368" stroke-width="1.51"/><path d="M2019,-52L2042,19L2085,-50Z" fill="#264d61" stroke="#264d61" stroke-width="1.51"/><path d="M2061,169L2013,205L2077,200Z" fill="#2b5b74" stroke="#2b5b74" stroke-width="1.51"/><path d="M1922,104L2017,158L2058,53Z" fill="#29566d" stroke="#29566d" stroke-width="1.51"/><path d="M1920,88L1922,104L2058,53Z" fill="#29546b" stroke="#29546b" stroke-width="1.51"/><path d="M2017,158L2013,205L2061,169Z" fill="#2a5a72" stroke="#2a5a72" stroke-width="1.51"/><path d="M2042,19L1920,88L2058,53Z" fill="#285369" stroke="#285369" stroke-width="1.51"/><path d="M2013,205L1959,294L2039,300Z" fill="#2b607a" stroke="#2b607a" stroke-width="1.51"/><path d="M2019,-52L1926,-28L2042,19Z" fill="#264e62" stroke="#264e62" stroke-width="1.51"/><path d="M1926,-28L1920,88L2042,19Z" fill="#285167" stroke="#285167" stroke-width="1.51"/><path d="M1966,197L1959,294L2013,205Z" fill="#2b5d77" stroke="#2b5d77" stroke-width="1.51"/><path d="M1922,104L1916,129L2017,158Z" fill="#2a576e" stroke="#2a576e" stroke-width="1.51"/><path d="M1966,197L2013,205L2017,158Z" fill="#2a5a73" stroke="#2a5a73" stroke-width="1.51"/><path d="M1926,-90L1926,-28L2019,-52Z" fill="#254b5d" stroke="#254b5d" stroke-width="1.51"/><path d="M1916,129L1966,197L2017,158Z" fill="#2a5971" stroke="#2a5971" stroke-width="1.51"/><path d="M1912,275L1829,288L1959,294Z" fill="#2b607b" stroke="#2b607b" stroke-width="1.51"/><path d="M1893,-7L1920,88L1926,-28Z" fill="#275065" stroke="#275065" stroke-width="1.51"/><path d="M1916,129L1858,181L1966,197Z" fill="#295971" stroke="#295971" stroke-width="1.51"/><path d="M1858,181L1912,275L1966,197Z" fill="#2a5c75" stroke="#2a5c75" stroke-width="1.51"/><path d="M1912,275L1959,294L1966,197Z" fill="#2b5f78" stroke="#2b5f78" stroke-width="1.51"/><path d="M1893,-7L1864,49L1920,88Z" fill="#275267" stroke="#275267" stroke-width="1.51"/><path d="M1926,-90L1902,-63L1926,-28Z" fill="#254a5d" stroke="#254a5d" stroke-width="1.51"/><path d="M1321,268L1114,308L1522,300Z" fill="#2a5d76" stroke="#2a5d76" stroke-width="1.51"/><path d="M1790,-73L1902,-63L1926,-90Z" fill="#24495a" stroke="#24495a" stroke-width="1.51"/><path d="M1902,-63L1893,-7L1926,-28Z" fill="#264c60" stroke="#264c60" stroke-width="1.51"/><path d="M1858,181L1829,288L1912,275Z" fill="#2b5e77" stroke="#2b5e77" stroke-width="1.51"/><path d="M1920,88L1840,92L1922,104Z" fill="#28556b" stroke="#28556b" stroke-width="1.51"/><path d="M1840,92L1916,129L1922,104Z" fill="#29556c" stroke="#29556c" stroke-width="1.51"/><path d="M1864,49L1840,92L1920,88Z" fill="#28546a" stroke="#28546a" stroke-width="1.51"/><path d="M1830,189L1829,288L1858,181Z" fill="#2a5b74" stroke="#2a5b74" stroke-width="1.51"/><path d="M1840,92L1858,181L1916,129Z" fill="#29576e" stroke="#29576e" stroke-width="1.51"/><path d="M1790,-73L1832,20L1893,-7Z" fill="#264d60" stroke="#264d60" stroke-width="1.51"/><path d="M1790,-73L1893,-7L1902,-63Z" fill="#254b5e" stroke="#254b5e" stroke-width="1.51"/><path d="M1832,20L1864,49L1893,-7Z" fill="#275065" stroke="#275065" stroke-width="1.51"/><path d="M1754,262L1670,285L1829,288Z" fill="#2b5f79" stroke="#2b5f79" stroke-width="1.51"/><path d="M1778,224L1829,288L1830,189Z" fill="#2b5c75" stroke="#2b5c75" stroke-width="1.51"/><path d="M1789,165L1830,189L1840,92Z" fill="#29576e" stroke="#29576e" stroke-width="1.51"/><path d="M1840,92L1830,189L1858,181Z" fill="#29576f" stroke="#29576f" stroke-width="1.51"/><path d="M1832,20L1840,92L1864,49Z" fill="#285267" stroke="#285267" stroke-width="1.51"/><path d="M1337,-107L1468,-78L1593,-95Z" fill="#234455" stroke="#234455" stroke-width="1.51"/><path d="M1790,-73L1752,-24L1832,20Z" fill="#264c5f" stroke="#264c5f" stroke-width="1.51"/><path d="M1832,20L1759,66L1840,92Z" fill="#285268" stroke="#285268" stroke-width="1.51"/><path d="M1759,66L1789,165L1840,92Z" fill="#29556b" stroke="#29556b" stroke-width="1.51"/><path d="M1778,224L1754,262L1829,288Z" fill="#2b5d77" stroke="#2b5d77" stroke-width="1.51"/><path d="M1752,-24L1759,66L1832,20Z" fill="#274f64" stroke="#274f64" stroke-width="1.51"/><path d="M1789,165L1778,224L1830,189Z" fill="#2a5a72" stroke="#2a5a72" stroke-width="1.51"/><path d="M1723,139L1778,224L1789,165Z" fill="#2a5870" stroke="#2a5870" stroke-width="1.51"/><path d="M1759,66L1723,139L1789,165Z" fill="#29556c" stroke="#29556c" stroke-width="1.51"/><path d="M1701,-99L1752,-63L1790,-73Z" fill="#244759" stroke="#244759" stroke-width="1.51"/><path d="M1752,-63L1752,-24L1790,-73Z" fill="#25495c" stroke="#25495c" stroke-width="1.51"/><path d="M1752,-24L1697,69L1759,66Z" fill="#275165" stroke="#275165" stroke-width="1.51"/><path d="M1668,206L1754,262L1778,224Z" fill="#2a5c74" stroke="#2a5c74" stroke-width="1.51"/><path d="M1723,139L1668,206L1778,224Z" fill="#2a5970" stroke="#2a5970" stroke-width="1.51"/><path d="M1680,-10L1697,69L1752,-24Z" fill="#274e63" stroke="#274e63" stroke-width="1.51"/><path d="M1697,69L1723,139L1759,66Z" fill="#285469" stroke="#285469" stroke-width="1.51"/><path d="M1752,-63L1680,-10L1752,-24Z" fill="#264b5e" stroke="#264b5e" stroke-width="1.51"/><path d="M1668,206L1670,285L1754,262Z" fill="#2a5c76" stroke="#2a5c76" stroke-width="1.51"/><path d="M1701,-99L1680,-10L1752,-63Z" fill="#25485b" stroke="#25485b" stroke-width="1.51"/><path d="M1620,271L1522,300L1670,285Z" fill="#2b5e78" stroke="#2b5e78" stroke-width="1.51"/><path d="M1697,69L1660,122L1723,139Z" fill="#28546a" stroke="#28546a" stroke-width="1.51"/><path d="M1660,122L1668,206L1723,139Z" fill="#29566d" stroke="#29566d" stroke-width="1.51"/><path d="M1680,-10L1622,81L1697,69Z" fill="#275165" stroke="#275165" stroke-width="1.51"/><path d="M1593,-95L1680,-10L1701,-99Z" fill="#244859" stroke="#244859" stroke-width="1.51"/><path d="M1337,-107L1386,-87L1468,-78Z" fill="#234454" stroke="#234454" stroke-width="1.51"/><path d="M1622,81L1660,122L1697,69Z" fill="#285369" stroke="#285369" stroke-width="1.51"/><path d="M1660,122L1596,210L1668,206Z" fill="#29576f" stroke="#29576f" stroke-width="1.51"/><path d="M1668,206L1620,271L1670,285Z" fill="#2a5d76" stroke="#2a5d76" stroke-width="1.51"/><path d="M1572,-17L1622,81L1680,-10Z" fill="#264e62" stroke="#264e62" stroke-width="1.51"/><path d="M1593,-95L1572,-17L1680,-10Z" fill="#25495c" stroke="#25495c" stroke-width="1.51"/><path d="M1572,119L1596,210L1660,122Z" fill="#29566c" stroke="#29566c" stroke-width="1.51"/><path d="M1596,210L1620,271L1668,206Z" fill="#2a5b73" stroke="#2a5b73" stroke-width="1.51"/><path d="M1622,81L1572,119L1660,122Z" fill="#285369" stroke="#285369" stroke-width="1.51"/><path d="M1558,-64L1572,-17L1593,-95Z" fill="#244759" stroke="#244759" stroke-width="1.51"/><path d="M1572,119L1554,165L1596,210Z" fill="#29566d" stroke="#29566d" stroke-width="1.51"/><path d="M1596,210L1544,223L1620,271Z" fill="#2a5b73" stroke="#2a5b73" stroke-width="1.51"/><path d="M1508,90L1572,119L1622,81Z" fill="#285268" stroke="#285268" stroke-width="1.51"/><path d="M1572,-17L1508,90L1622,81Z" fill="#275065" stroke="#275065" stroke-width="1.51"/><path d="M1544,223L1522,300L1620,271Z" fill="#2a5c76" stroke="#2a5c76" stroke-width="1.51"/><path d="M1468,-78L1558,-64L1593,-95Z" fill="#244657" stroke="#244657" stroke-width="1.51"/><path d="M1554,165L1544,223L1596,210Z" fill="#2a5870" stroke="#2a5870" stroke-width="1.51"/><path d="M1519,-39L1474,67L1572,-17Z" fill="#264d60" stroke="#264d60" stroke-width="1.51"/><path d="M1474,67L1508,90L1572,-17Z" fill="#275064" stroke="#275064" stroke-width="1.51"/><path d="M1558,-64L1519,-39L1572,-17Z" fill="#25495b" stroke="#25495b" stroke-width="1.51"/><path d="M1508,90L1554,165L1572,119Z" fill="#28546a" stroke="#28546a" stroke-width="1.51"/><path d="M1470,-30L1474,67L1519,-39Z" fill="#254c5f" stroke="#254c5f" stroke-width="1.51"/><path d="M1478,244L1522,300L1544,223Z" fill="#2a5c74" stroke="#2a5c74" stroke-width="1.51"/><path d="M1508,90L1466,159L1554,165Z" fill="#29556a" stroke="#29556a" stroke-width="1.51"/><path d="M1479,212L1544,223L1554,165Z" fill="#2a586f" stroke="#2a586f" stroke-width="1.51"/><path d="M1468,-78L1519,-39L1558,-64Z" fill="#244759" stroke="#244759" stroke-width="1.51"/><path d="M1466,159L1479,212L1554,165Z" fill="#29566e" stroke="#29566e" stroke-width="1.51"/><path d="M1418,242L1321,268L1522,300Z" fill="#2a5c75" stroke="#2a5c75" stroke-width="1.51"/><path d="M1479,212L1478,244L1544,223Z" fill="#2a5972" stroke="#2a5972" stroke-width="1.51"/><path d="M1468,-78L1470,-30L1519,-39Z" fill="#24485a" stroke="#24485a" stroke-width="1.51"/><path d="M1478,244L1418,242L1522,300Z" fill="#2a5c74" stroke="#2a5c74" stroke-width="1.51"/><path d="M1474,67L1466,159L1508,90Z" fill="#285268" stroke="#285268" stroke-width="1.51"/><path d="M1196,267L1114,308L1321,268Z" fill="#295b74" stroke="#295b74" stroke-width="1.51"/><path d="M1396,140L1466,159L1474,67Z" fill="#285369" stroke="#285369" stroke-width="1.51"/><path d="M1470,-30L1371,26L1474,67Z" fill="#264d61" stroke="#264d61" stroke-width="1.51"/><path d="M1371,26L1371,35L1474,67Z" fill="#264e63" stroke="#264e63" stroke-width="1.51"/><path d="M1466,159L1406,228L1479,212Z" fill="#29586f" stroke="#29586f" stroke-width="1.51"/><path d="M1406,228L1418,242L1479,212Z" fill="#295971" stroke="#295971" stroke-width="1.51"/><path d="M1418,242L1478,244L1479,212Z" fill="#295a72" stroke="#295a72" stroke-width="1.51"/><path d="M1468,-78L1386,-87L1470,-30Z" fill="#244658" stroke="#244658" stroke-width="1.51"/><path d="M1371,35L1396,140L1474,67Z" fill="#275065" stroke="#275065" stroke-width="1.51"/><path d="M636,277L562,286L911,306Z" fill="#28576e" stroke="#28576e" stroke-width="1.51"/><path d="M1396,140L1406,228L1466,159Z" fill="#29566c" stroke="#29566c" stroke-width="1.51"/><path d="M1386,-87L1371,26L1470,-30Z" fill="#25495b" stroke="#25495b" stroke-width="1.51"/><path d="M1371,35L1345,84L1396,140Z" fill="#275166" stroke="#275166" stroke-width="1.51"/><path d="M1396,140L1296,191L1406,228Z" fill="#29566d" stroke="#29566d" stroke-width="1.51"/><path d="M1406,228L1321,268L1418,242Z" fill="#2a5a72" stroke="#2a5a72" stroke-width="1.51"/><path d="M1293,-29L1371,26L1386,-87Z" fill="#25485a" stroke="#25485a" stroke-width="1.51"/><path d="M1311,138L1296,191L1396,140Z" fill="#29546a" stroke="#29546a" stroke-width="1.51"/><path d="M1296,191L1321,268L1406,228Z" fill="#295970" stroke="#295970" stroke-width="1.51"/><path d="M1337,-107L1293,-29L1386,-87Z" fill="#234556" stroke="#234556" stroke-width="1.51"/><path d="M1345,84L1311,138L1396,140Z" fill="#285268" stroke="#285268" stroke-width="1.51"/><path d="M987,-94L1086,-76L1183,-91Z" fill="#224252" stroke="#224252" stroke-width="1.51"/><path d="M1293,-29L1273,10L1371,26Z" fill="#264b5e" stroke="#264b5e" stroke-width="1.51"/><path d="M1371,26L1273,10L1371,35Z" fill="#264d61" stroke="#264d61" stroke-width="1.51"/><path d="M1273,10L1345,84L1371,35Z" fill="#264e62" stroke="#264e62" stroke-width="1.51"/><path d="M1283,245L1196,267L1321,268Z" fill="#295a73" stroke="#295a73" stroke-width="1.51"/><path d="M1296,191L1283,245L1321,268Z" fill="#2a5970" stroke="#2a5970" stroke-width="1.51"/><path d="M1183,-91L1250,-56L1337,-107Z" fill="#234353" stroke="#234353" stroke-width="1.51"/><path d="M1250,-56L1293,-29L1337,-107Z" fill="#244556" stroke="#244556" stroke-width="1.51"/><path d="M1249,77L1311,138L1345,84Z" fill="#285166" stroke="#285166" stroke-width="1.51"/><path d="M1273,10L1249,77L1345,84Z" fill="#264f63" stroke="#264f63" stroke-width="1.51"/><path d="M1220,108L1254,180L1311,138Z" fill="#285368" stroke="#285368" stroke-width="1.51"/><path d="M1249,77L1220,108L1311,138Z" fill="#275166" stroke="#275166" stroke-width="1.51"/><path d="M1254,180L1296,191L1311,138Z" fill="#29546b" stroke="#29546b" stroke-width="1.51"/><path d="M1254,180L1283,245L1296,191Z" fill="#29566e" stroke="#29566e" stroke-width="1.51"/><path d="M1250,-56L1273,10L1293,-29Z" fill="#24485b" stroke="#24485b" stroke-width="1.51"/><path d="M1254,180L1212,228L1283,245Z" fill="#29576e" stroke="#29576e" stroke-width="1.51"/><path d="M1212,228L1196,267L1283,245Z" fill="#295971" stroke="#295971" stroke-width="1.51"/><path d="M1250,-56L1164,-2L1273,10Z" fill="#25495b" stroke="#25495b" stroke-width="1.51"/><path d="M1164,-2L1249,77L1273,10Z" fill="#264d60" stroke="#264d60" stroke-width="1.51"/><path d="M1164,-2L1162,88L1249,77Z" fill="#264e61" stroke="#264e61" stroke-width="1.51"/><path d="M1220,108L1177,121L1254,180Z" fill="#285268" stroke="#285268" stroke-width="1.51"/><path d="M1177,121L1212,228L1254,180Z" fill="#28546b" stroke="#28546b" stroke-width="1.51"/><path d="M1162,88L1220,108L1249,77Z" fill="#274f65" stroke="#274f65" stroke-width="1.51"/><path d="M1183,-91L1164,-2L1250,-56Z" fill="#244657" stroke="#244657" stroke-width="1.51"/><path d="M1177,121L1138,231L1212,228Z" fill="#29556c" stroke="#29556c" stroke-width="1.51"/><path d="M1162,88L1177,121L1220,108Z" fill="#275065" stroke="#275065" stroke-width="1.51"/><path d="M1138,231L1196,267L1212,228Z" fill="#295870" stroke="#295870" stroke-width="1.51"/><path d="M1111,60L1162,88L1164,-2Z" fill="#264d61" stroke="#264d61" stroke-width="1.51"/><path d="M1102,144L1138,231L1177,121Z" fill="#285369" stroke="#285369" stroke-width="1.51"/><path d="M1086,-76L1164,-2L1183,-91Z" fill="#234556" stroke="#234556" stroke-width="1.51"/><path d="M1138,231L1114,308L1196,267Z" fill="#295a72" stroke="#295a72" stroke-width="1.51"/><path d="M1086,-76L1100,-2L1164,-2Z" fill="#244759" stroke="#244759" stroke-width="1.51"/><path d="M1162,88L1102,144L1177,121Z" fill="#275165" stroke="#275165" stroke-width="1.51"/><path d="M1111,60L1102,144L1162,88Z" fill="#274f64" stroke="#274f64" stroke-width="1.51"/><path d="M1100,-2L1111,60L1164,-2Z" fill="#254b5e" stroke="#254b5e" stroke-width="1.51"/><path d="M1076,66L1102,144L1111,60Z" fill="#274f63" stroke="#274f63" stroke-width="1.51"/><path d="M1075,278L911,306L1114,308Z" fill="#295b74" stroke="#295b74" stroke-width="1.51"/><path d="M1102,144L1042,205L1138,231Z" fill="#29556b" stroke="#29556b" stroke-width="1.51"/><path d="M1042,205L1075,278L1138,231Z" fill="#29586f" stroke="#29586f" stroke-width="1.51"/><path d="M1075,278L1114,308L1138,231Z" fill="#295a72" stroke="#295a72" stroke-width="1.51"/><path d="M948,272L911,306L1075,278Z" fill="#295a72" stroke="#295a72" stroke-width="1.51"/><path d="M987,-94L1043,-68L1086,-76Z" fill="#224252" stroke="#224252" stroke-width="1.51"/><path d="M1086,-76L1051,-32L1100,-2Z" fill="#244657" stroke="#244657" stroke-width="1.51"/><path d="M1042,164L1042,205L1102,144Z" fill="#285369" stroke="#285369" stroke-width="1.51"/><path d="M1100,-2L1076,66L1111,60Z" fill="#264c60" stroke="#264c60" stroke-width="1.51"/><path d="M126,-99L314,-68L518,-88Z" fill="#203a47" stroke="#203a47" stroke-width="1.51"/><path d="M723,263L636,277L911,306Z" fill="#28576f" stroke="#28576f" stroke-width="1.51"/><path d="M1051,-32L1076,66L1100,-2Z" fill="#254a5d" stroke="#254a5d" stroke-width="1.51"/><path d="M1076,66L1042,164L1102,144Z" fill="#275165" stroke="#275165" stroke-width="1.51"/><path d="M518,-88L673,-80L783,-106Z" fill="#213d4c" stroke="#213d4c" stroke-width="1.51"/><path d="M1051,-32L961,17L1076,66Z" fill="#254a5d" stroke="#254a5d" stroke-width="1.51"/><path d="M981,90L1042,164L1076,66Z" fill="#274f64" stroke="#274f64" stroke-width="1.51"/><path d="M1043,-68L1051,-32L1086,-76Z" fill="#234455" stroke="#234455" stroke-width="1.51"/><path d="M1042,205L959,235L1075,278Z" fill="#29576e" stroke="#29576e" stroke-width="1.51"/><path d="M961,17L981,90L1076,66Z" fill="#264d60" stroke="#264d60" stroke-width="1.51"/><path d="M959,235L948,272L1075,278Z" fill="#295870" stroke="#295870" stroke-width="1.51"/><path d="M981,90L960,152L1042,164Z" fill="#275066" stroke="#275066" stroke-width="1.51"/><path d="M1043,-68L987,-94L1051,-32Z" fill="#234354" stroke="#234354" stroke-width="1.51"/><path d="M987,-94L961,17L1051,-32Z" fill="#234557" stroke="#234557" stroke-width="1.51"/><path d="M1042,164L960,152L1042,205Z" fill="#285369" stroke="#285369" stroke-width="1.51"/><path d="M960,152L959,235L1042,205Z" fill="#28546a" stroke="#28546a" stroke-width="1.51"/><path d="M961,17L884,95L981,90Z" fill="#264d60" stroke="#264d60" stroke-width="1.51"/><path d="M908,120L960,152L981,90Z" fill="#275064" stroke="#275064" stroke-width="1.51"/><path d="M845,-102L897,-58L987,-94Z" fill="#224150" stroke="#224150" stroke-width="1.51"/><path d="M903,-26L961,17L987,-94Z" fill="#234556" stroke="#234556" stroke-width="1.51"/><path d="M897,-58L903,-26L987,-94Z" fill="#234353" stroke="#234353" stroke-width="1.51"/><path d="M884,95L908,120L981,90Z" fill="#274e62" stroke="#274e62" stroke-width="1.51"/><path d="M518,-88L640,-76L673,-80Z" fill="#213e4c" stroke="#213e4c" stroke-width="1.51"/><path d="M871,183L868,249L959,235Z" fill="#28556b" stroke="#28556b" stroke-width="1.51"/><path d="M871,183L959,235L960,152Z" fill="#285369" stroke="#285369" stroke-width="1.51"/><path d="M908,120L871,183L960,152Z" fill="#275166" stroke="#275166" stroke-width="1.51"/><path d="M903,-26L884,95L961,17Z" fill="#254a5d" stroke="#254a5d" stroke-width="1.51"/><path d="M868,249L948,272L959,235Z" fill="#29576f" stroke="#29576f" stroke-width="1.51"/><path d="M868,249L911,306L948,272Z" fill="#295970" stroke="#295970" stroke-width="1.51"/><path d="M836,-15L826,68L884,95Z" fill="#254a5e" stroke="#254a5e" stroke-width="1.51"/><path d="M836,-15L884,95L903,-26Z" fill="#24495b" stroke="#24495b" stroke-width="1.51"/><path d="M835,148L871,183L908,120Z" fill="#275065" stroke="#275065" stroke-width="1.51"/><path d="M868,249L799,243L911,306Z" fill="#28576f" stroke="#28576f" stroke-width="1.51"/><path d="M799,243L723,263L911,306Z" fill="#28576e" stroke="#28576e" stroke-width="1.51"/><path d="M884,95L835,148L908,120Z" fill="#264f63" stroke="#264f63" stroke-width="1.51"/><path d="M897,-58L836,-15L903,-26Z" fill="#234455" stroke="#234455" stroke-width="1.51"/><path d="M845,-102L836,-15L897,-58Z" fill="#224252" stroke="#224252" stroke-width="1.51"/><path d="M812,220L868,249L871,183Z" fill="#28546a" stroke="#28546a" stroke-width="1.51"/><path d="M826,68L835,148L884,95Z" fill="#264d61" stroke="#264d61" stroke-width="1.51"/><path d="M835,148L812,220L871,183Z" fill="#275267" stroke="#275267" stroke-width="1.51"/><path d="M812,220L799,243L868,249Z" fill="#28556c" stroke="#28556c" stroke-width="1.51"/><path d="M826,68L765,156L835,148Z" fill="#264e62" stroke="#264e62" stroke-width="1.51"/><path d="M765,156L812,220L835,148Z" fill="#275166" stroke="#275166" stroke-width="1.51"/><path d="M781,4L826,68L836,-15Z" fill="#24485a" stroke="#24485a" stroke-width="1.51"/><path d="M783,-106L781,4L836,-15Z" fill="#234353" stroke="#234353" stroke-width="1.51"/><path d="M783,-106L836,-15L845,-102Z" fill="#224150" stroke="#224150" stroke-width="1.51"/><path d="M765,156L776,215L812,220Z" fill="#285268" stroke="#285268" stroke-width="1.51"/><path d="M781,4L745,45L826,68Z" fill="#25495c" stroke="#25495c" stroke-width="1.51"/><path d="M745,45L765,156L826,68Z" fill="#264c5f" stroke="#264c5f" stroke-width="1.51"/><path d="M776,215L799,243L812,220Z" fill="#28546a" stroke="#28546a" stroke-width="1.51"/><path d="M745,45L718,55L765,156Z" fill="#254b5e" stroke="#254b5e" stroke-width="1.51"/><path d="M673,-80L696,15L781,4Z" fill="#234455" stroke="#234455" stroke-width="1.51"/><path d="M673,-80L781,4L783,-106Z" fill="#224151" stroke="#224151" stroke-width="1.51"/><path d="M776,215L723,263L799,243Z" fill="#28556b" stroke="#28556b" stroke-width="1.51"/><path d="M718,55L687,130L765,156Z" fill="#264d60" stroke="#264d60" stroke-width="1.51"/><path d="M765,156L715,210L776,215Z" fill="#285167" stroke="#285167" stroke-width="1.51"/><path d="M696,15L745,45L781,4Z" fill="#244859" stroke="#244859" stroke-width="1.51"/><path d="M715,210L723,263L776,215Z" fill="#275469" stroke="#275469" stroke-width="1.51"/><path d="M687,130L715,210L765,156Z" fill="#274f64" stroke="#274f64" stroke-width="1.51"/><path d="M696,15L718,55L745,45Z" fill="#24495b" stroke="#24495b" stroke-width="1.51"/><path d="M687,130L624,212L715,210Z" fill="#275064" stroke="#275064" stroke-width="1.51"/><path d="M625,94L687,130L718,55Z" fill="#254b5e" stroke="#254b5e" stroke-width="1.51"/><path d="M715,210L636,277L723,263Z" fill="#28546b" stroke="#28546b" stroke-width="1.51"/><path d="M624,212L636,277L715,210Z" fill="#275369" stroke="#275369" stroke-width="1.51"/><path d="M696,15L625,94L718,55Z" fill="#25495b" stroke="#25495b" stroke-width="1.51"/><path d="M673,-80L640,-76L696,15Z" fill="#224151" stroke="#224151" stroke-width="1.51"/><path d="M597,152L624,212L687,130Z" fill="#274e62" stroke="#274e62" stroke-width="1.51"/><path d="M640,-76L608,-3L696,15Z" fill="#234353" stroke="#234353" stroke-width="1.51"/><path d="M608,-3L625,94L696,15Z" fill="#24485a" stroke="#24485a" stroke-width="1.51"/><path d="M625,94L597,152L687,130Z" fill="#264c60" stroke="#264c60" stroke-width="1.51"/><path d="M608,-3L584,65L625,94Z" fill="#24485a" stroke="#24485a" stroke-width="1.51"/><path d="M597,152L587,167L624,212Z" fill="#264f63" stroke="#264f63" stroke-width="1.51"/><path d="M624,212L562,286L636,277Z" fill="#27546a" stroke="#27546a" stroke-width="1.51"/><path d="M531,-55L608,-3L640,-76Z" fill="#224150" stroke="#224150" stroke-width="1.51"/><path d="M518,-88L531,-55L640,-76Z" fill="#213e4c" stroke="#213e4c" stroke-width="1.51"/><path d="M531,-55L574,1L608,-3Z" fill="#224252" stroke="#224252" stroke-width="1.51"/><path d="M574,1L584,65L608,-3Z" fill="#244657" stroke="#244657" stroke-width="1.51"/><path d="M541,225L562,286L624,212Z" fill="#275369" stroke="#275369" stroke-width="1.51"/><path d="M584,65L597,152L625,94Z" fill="#254b5d" stroke="#254b5d" stroke-width="1.51"/><path d="M587,167L541,225L624,212Z" fill="#275065" stroke="#275065" stroke-width="1.51"/><path d="M314,-68L383,-52L518,-88Z" fill="#203d4b" stroke="#203d4b" stroke-width="1.51"/><path d="M463,263L380,307L562,286Z" fill="#27546a" stroke="#27546a" stroke-width="1.51"/><path d="M584,65L486,132L597,152Z" fill="#254b5e" stroke="#254b5e" stroke-width="1.51"/><path d="M486,132L587,167L597,152Z" fill="#264d60" stroke="#264d60" stroke-width="1.51"/><path d="M574,1L470,51L584,65Z" fill="#244758" stroke="#244758" stroke-width="1.51"/><path d="M484,176L541,225L587,167Z" fill="#264f63" stroke="#264f63" stroke-width="1.51"/><path d="M486,132L484,176L587,167Z" fill="#264d60" stroke="#264d60" stroke-width="1.51"/><path d="M470,51L486,132L584,65Z" fill="#25495b" stroke="#25495b" stroke-width="1.51"/><path d="M531,-55L501,-34L574,1Z" fill="#224151" stroke="#224151" stroke-width="1.51"/><path d="M501,-34L470,51L574,1Z" fill="#234455" stroke="#234455" stroke-width="1.51"/><path d="M96,282L-77,284L143,291Z" fill="#264f65" stroke="#264f65" stroke-width="1.51"/><path d="M541,225L463,263L562,286Z" fill="#275369" stroke="#275369" stroke-width="1.51"/><path d="M484,176L463,263L541,225Z" fill="#275165" stroke="#275165" stroke-width="1.51"/><path d="M518,-88L501,-34L531,-55Z" fill="#213e4d" stroke="#213e4d" stroke-width="1.51"/><path d="M383,-52L501,-34L518,-88Z" fill="#213e4c" stroke="#213e4c" stroke-width="1.51"/><path d="M421,215L463,263L484,176Z" fill="#265064" stroke="#265064" stroke-width="1.51"/><path d="M401,-17L470,51L501,-34Z" fill="#224353" stroke="#224353" stroke-width="1.51"/><path d="M383,-52L401,-17L501,-34Z" fill="#213f4e" stroke="#213f4e" stroke-width="1.51"/><path d="M392,114L421,215L484,176Z" fill="#264c60" stroke="#264c60" stroke-width="1.51"/><path d="M392,114L484,176L486,132Z" fill="#254b5e" stroke="#254b5e" stroke-width="1.51"/><path d="M470,51L392,114L486,132Z" fill="#24495b" stroke="#24495b" stroke-width="1.51"/><path d="M294,271L143,291L380,307Z" fill="#275268" stroke="#275268" stroke-width="1.51"/><path d="M401,-17L383,57L470,51Z" fill="#234556" stroke="#234556" stroke-width="1.51"/><path d="M383,57L392,114L470,51Z" fill="#244759" stroke="#244759" stroke-width="1.51"/><path d="M421,215L380,307L463,263Z" fill="#275267" stroke="#275267" stroke-width="1.51"/><path d="M341,282L294,271L380,307Z" fill="#275269" stroke="#275269" stroke-width="1.51"/><path d="M341,282L380,307L421,215Z" fill="#275267" stroke="#275267" stroke-width="1.51"/><path d="M312,224L341,282L421,215Z" fill="#275064" stroke="#275064" stroke-width="1.51"/><path d="M392,114L326,149L421,215Z" fill="#264b5e" stroke="#264b5e" stroke-width="1.51"/><path d="M326,149L312,224L421,215Z" fill="#264d61" stroke="#264d61" stroke-width="1.51"/><path d="M383,57L342,77L392,114Z" fill="#244759" stroke="#244759" stroke-width="1.51"/><path d="M331,-21L383,57L401,-17Z" fill="#234253" stroke="#234253" stroke-width="1.51"/><path d="M383,-52L331,-21L401,-17Z" fill="#223f4e" stroke="#223f4e" stroke-width="1.51"/><path d="M331,-21L342,77L383,57Z" fill="#234555" stroke="#234555" stroke-width="1.51"/><path d="M342,77L326,149L392,114Z" fill="#25495b" stroke="#25495b" stroke-width="1.51"/><path d="M314,-68L331,-21L383,-52Z" fill="#213e4c" stroke="#213e4c" stroke-width="1.51"/><path d="M126,-99L210,-44L314,-68Z" fill="#203a48" stroke="#203a48" stroke-width="1.51"/><path d="M284,201L312,224L326,149Z" fill="#264d60" stroke="#264d60" stroke-width="1.51"/><path d="M314,-68L298,-53L331,-21Z" fill="#213d4c" stroke="#213d4c" stroke-width="1.51"/><path d="M312,224L294,271L341,282Z" fill="#265166" stroke="#265166" stroke-width="1.51"/><path d="M242,139L326,149L342,77Z" fill="#24495b" stroke="#24495b" stroke-width="1.51"/><path d="M258,37L242,139L342,77Z" fill="#244658" stroke="#244658" stroke-width="1.51"/><path d="M331,-21L258,37L342,77Z" fill="#234454" stroke="#234454" stroke-width="1.51"/><path d="M211,249L143,291L294,271Z" fill="#275065" stroke="#275065" stroke-width="1.51"/><path d="M210,-44L298,-53L314,-68Z" fill="#203c4a" stroke="#203c4a" stroke-width="1.51"/><path d="M298,-53L257,-29L331,-21Z" fill="#213e4c" stroke="#213e4c" stroke-width="1.51"/><path d="M257,-29L258,37L331,-21Z" fill="#224050" stroke="#224050" stroke-width="1.51"/><path d="M242,139L284,201L326,149Z" fill="#254a5d" stroke="#254a5d" stroke-width="1.51"/><path d="M284,201L294,271L312,224Z" fill="#264f63" stroke="#264f63" stroke-width="1.51"/><path d="M284,201L229,233L294,271Z" fill="#264f63" stroke="#264f63" stroke-width="1.51"/><path d="M210,-44L257,-29L298,-53Z" fill="#213d4b" stroke="#213d4b" stroke-width="1.51"/><path d="M229,233L211,249L294,271Z" fill="#264f64" stroke="#264f64" stroke-width="1.51"/><path d="M177,61L242,139L258,37Z" fill="#244556" stroke="#244556" stroke-width="1.51"/><path d="M242,139L212,149L284,201Z" fill="#254a5d" stroke="#254a5d" stroke-width="1.51"/><path d="M212,149L229,233L284,201Z" fill="#264c5f" stroke="#264c5f" stroke-width="1.51"/><path d="M177,61L212,149L242,139Z" fill="#244759" stroke="#244759" stroke-width="1.51"/><path d="M257,-29L210,-44L258,37Z" fill="#223f4e" stroke="#223f4e" stroke-width="1.51"/><path d="M210,-44L161,20L258,37Z" fill="#224150" stroke="#224150" stroke-width="1.51"/><path d="M161,20L177,61L258,37Z" fill="#224353" stroke="#224353" stroke-width="1.51"/><path d="M177,-36L161,20L210,-44Z" fill="#213e4d" stroke="#213e4d" stroke-width="1.51"/><path d="M212,149L159,155L229,233Z" fill="#254a5e" stroke="#254a5e" stroke-width="1.51"/><path d="M126,-99L177,-36L210,-44Z" fill="#203b48" stroke="#203b48" stroke-width="1.51"/><path d="M159,155L129,224L211,249Z" fill="#254c5f" stroke="#254c5f" stroke-width="1.51"/><path d="M177,61L159,155L212,149Z" fill="#244759" stroke="#244759" stroke-width="1.51"/><path d="M159,155L211,249L229,233Z" fill="#254c60" stroke="#254c60" stroke-width="1.51"/><path d="M129,224L143,291L211,249Z" fill="#264f63" stroke="#264f63" stroke-width="1.51"/><path d="M76,-50L69,-9L161,20Z" fill="#213e4c" stroke="#213e4c" stroke-width="1.51"/><path d="M76,-50L161,20L177,-36Z" fill="#213d4c" stroke="#213d4c" stroke-width="1.51"/><path d="M126,-99L76,-50L177,-36Z" fill="#203a47" stroke="#203a47" stroke-width="1.51"/><path d="M161,20L101,67L177,61Z" fill="#234353" stroke="#234353" stroke-width="1.51"/><path d="M101,67L159,155L177,61Z" fill="#234556" stroke="#234556" stroke-width="1.51"/><path d="M89,161L129,224L159,155Z" fill="#254a5d" stroke="#254a5d" stroke-width="1.51"/><path d="M101,67L89,161L159,155Z" fill="#244758" stroke="#244758" stroke-width="1.51"/><path d="M69,-9L101,67L161,20Z" fill="#224151" stroke="#224151" stroke-width="1.51"/><path d="M129,224L96,282L143,291Z" fill="#264f64" stroke="#264f64" stroke-width="1.51"/><path d="M89,161L69,202L129,224Z" fill="#254a5d" stroke="#254a5d" stroke-width="1.51"/><path d="M-16,253L-77,284L96,282Z" fill="#264e62" stroke="#264e62" stroke-width="1.51"/><path d="M69,-9L72,63L101,67Z" fill="#224251" stroke="#224251" stroke-width="1.51"/><path d="M72,63L89,161L101,67Z" fill="#234556" stroke="#234556" stroke-width="1.51"/><path d="M-34,-108L76,-50L126,-99Z" fill="#1e3744" stroke="#1e3744" stroke-width="1.51"/><path d="M69,202L96,282L129,224Z" fill="#264d61" stroke="#264d61" stroke-width="1.51"/><path d="M72,63L27,138L89,161Z" fill="#234657" stroke="#234657" stroke-width="1.51"/><path d="M69,202L-16,253L96,282Z" fill="#254d60" stroke="#254d60" stroke-width="1.51"/><path d="M12,199L-16,253L69,202Z" fill="#254b5e" stroke="#254b5e" stroke-width="1.51"/><path d="M27,138L69,202L89,161Z" fill="#24495a" stroke="#24495a" stroke-width="1.51"/><path d="M-42,3L-5,78L69,-9Z" fill="#22404f" stroke="#22404f" stroke-width="1.51"/><path d="M27,138L12,199L69,202Z" fill="#24495b" stroke="#24495b" stroke-width="1.51"/><path d="M69,-9L-5,78L72,63Z" fill="#224151" stroke="#224151" stroke-width="1.51"/><path d="M-5,78L27,138L72,63Z" fill="#234455" stroke="#234455" stroke-width="1.51"/><path d="M-40,-8L69,-9L76,-50Z" fill="#203c4a" stroke="#203c4a" stroke-width="1.51"/><path d="M-34,-108L-40,-8L76,-50Z" fill="#1f3946" stroke="#1f3946" stroke-width="1.51"/><path d="M-40,-8L-42,3L69,-9Z" fill="#213d4c" stroke="#213d4c" stroke-width="1.51"/><path d="M-5,78L-87,141L27,138Z" fill="#234556" stroke="#234556" stroke-width="1.51"/><path d="M-87,141L-73,181L27,138Z" fill="#244658" stroke="#244658" stroke-width="1.51"/><path d="M-73,181L12,199L27,138Z" fill="#244859" stroke="#244859" stroke-width="1.51"/><path d="M-73,181L-16,253L12,199Z" fill="#254a5c" stroke="#254a5c" stroke-width="1.51"/><path d="M-42,3L-108,85L-5,78Z" fill="#224151" stroke="#224151" stroke-width="1.51"/><path d="M-108,85L-87,141L-5,78Z" fill="#234454" stroke="#234454" stroke-width="1.51"/><path d="M-95,-107L-40,-8L-34,-108Z" fill="#1e3743" stroke="#1e3743" stroke-width="1.51"/><path d="M-73,181L-77,284L-16,253Z" fill="#254b5f" stroke="#254b5f" stroke-width="1.51"/><path d="M-95,-107L-42,3L-40,-8Z" fill="#1f3a47" stroke="#1f3a47" stroke-width="1.51"/><path d="M-95,-107L-108,85L-42,3Z" fill="#203d4b" stroke="#203d4b" stroke-width="1.51"/><path d="M-87,141L-77,284L-73,181Z" fill="#24495b" stroke="#24495b" stroke-width="1.51"/><path d="M-87,141L-108,85L-77,284Z" fill="#244758" stroke="#244758" stroke-width="1.51"/></svg>